<mxfile host="app.diagrams.net" modified="2022-07-28T08:35:29.795Z" agent="5.0 (Windows NT 10.0; Win64; x64) AppleWebKit/537.36 (KHTML, like Gecko) Chrome/102.0.0.0 Safari/537.36" etag="qRZ4-5K2yRL1sPBKvnAI" version="20.1.3" type="github">
  <diagram id="kjI9D8ZzYYOd5UfxsRcb" name="Page-1">
    <mxGraphModel dx="2889" dy="1192" grid="1" gridSize="10" guides="1" tooltips="1" connect="1" arrows="1" fold="1" page="1" pageScale="1" pageWidth="827" pageHeight="1169" math="0" shadow="0">
      <root>
        <mxCell id="0" />
        <mxCell id="1" parent="0" />
        <mxCell id="FtcTc9OO5JAJ6ZeUWabw-67" style="edgeStyle=orthogonalEdgeStyle;rounded=0;sketch=1;orthogonalLoop=1;jettySize=auto;html=1;" parent="1" source="FtcTc9OO5JAJ6ZeUWabw-62" target="FtcTc9OO5JAJ6ZeUWabw-51" edge="1">
          <mxGeometry relative="1" as="geometry" />
        </mxCell>
        <mxCell id="FtcTc9OO5JAJ6ZeUWabw-62" value="" style="fontColor=#0066CC;verticalAlign=top;verticalLabelPosition=bottom;labelPosition=center;align=center;html=1;outlineConnect=0;fillColor=#CCCCCC;strokeColor=#6881B3;gradientColor=none;gradientDirection=north;strokeWidth=2;shape=mxgraph.networks.users;rounded=0;shadow=0;glass=0;sketch=1;fillStyle=solid;" parent="1" vertex="1">
          <mxGeometry x="59.52" y="310" width="45.32" height="50" as="geometry" />
        </mxCell>
        <mxCell id="FtcTc9OO5JAJ6ZeUWabw-64" value="" style="group;imageAspect=1;" parent="1" vertex="1" connectable="0">
          <mxGeometry x="-260" y="400.0037465527064" width="1090" height="450" as="geometry" />
        </mxCell>
        <mxCell id="FtcTc9OO5JAJ6ZeUWabw-68" value="" style="group" parent="FtcTc9OO5JAJ6ZeUWabw-64" vertex="1" connectable="0">
          <mxGeometry x="-30" y="-110" width="1050" height="560" as="geometry" />
        </mxCell>
        <mxCell id="FtcTc9OO5JAJ6ZeUWabw-8" value="" style="rounded=0;whiteSpace=wrap;html=1;fillColor=#FFB570;strokeColor=#82b366;fillStyle=auto;glass=0;sketch=1;shadow=0;dashed=1;fillOpacity=90;" parent="FtcTc9OO5JAJ6ZeUWabw-68" vertex="1">
          <mxGeometry width="1050" height="559.9999999999999" as="geometry" />
        </mxCell>
        <mxCell id="FtcTc9OO5JAJ6ZeUWabw-9" value="外网" style="rounded=0;whiteSpace=wrap;html=1;shadow=0;glass=0;dashed=1;sketch=1;fillStyle=solid;fillColor=#ffe6cc;strokeColor=#d79b00;" parent="FtcTc9OO5JAJ6ZeUWabw-68" vertex="1">
          <mxGeometry width="99.31034482758622" height="36.9811320754717" as="geometry" />
        </mxCell>
        <mxCell id="FtcTc9OO5JAJ6ZeUWabw-59" value="支付服务" style="rounded=1;whiteSpace=wrap;html=1;strokeWidth=2;fillWeight=4;hachureGap=8;hachureAngle=45;fillColor=#1ba1e2;sketch=1;shadow=0;glass=0;fillStyle=solid;" parent="FtcTc9OO5JAJ6ZeUWabw-68" vertex="1">
          <mxGeometry x="880" y="129.9962534472936" width="120" height="60" as="geometry" />
        </mxCell>
        <mxCell id="FtcTc9OO5JAJ6ZeUWabw-60" value="第三方信息同步服务" style="rounded=1;whiteSpace=wrap;html=1;strokeWidth=2;fillWeight=4;hachureGap=8;hachureAngle=45;fillColor=#1ba1e2;sketch=1;shadow=0;glass=0;fillStyle=solid;" parent="FtcTc9OO5JAJ6ZeUWabw-68" vertex="1">
          <mxGeometry x="880" y="229.9962534472936" width="120" height="60" as="geometry" />
        </mxCell>
        <mxCell id="FtcTc9OO5JAJ6ZeUWabw-61" value="其他外网服务" style="rounded=1;whiteSpace=wrap;html=1;strokeWidth=2;fillWeight=4;hachureGap=8;hachureAngle=45;fillColor=#1ba1e2;sketch=1;shadow=0;glass=0;fillStyle=solid;" parent="FtcTc9OO5JAJ6ZeUWabw-68" vertex="1">
          <mxGeometry x="880" y="319.9962534472936" width="120" height="60" as="geometry" />
        </mxCell>
        <mxCell id="FtcTc9OO5JAJ6ZeUWabw-5" value="" style="rounded=0;whiteSpace=wrap;html=1;fillColor=#d5e8d4;strokeColor=#82b366;fillStyle=solid;glass=0;sketch=1;shadow=0;dashed=1;fillOpacity=100;" parent="FtcTc9OO5JAJ6ZeUWabw-64" vertex="1">
          <mxGeometry y="17.056253447293614" width="680" height="362.94" as="geometry" />
        </mxCell>
        <mxCell id="FtcTc9OO5JAJ6ZeUWabw-7" value="内网" style="rounded=0;whiteSpace=wrap;html=1;shadow=0;glass=0;dashed=1;sketch=1;fillStyle=solid;fillColor=#d5e8d4;strokeColor=#82b366;" parent="FtcTc9OO5JAJ6ZeUWabw-64" vertex="1">
          <mxGeometry y="17.056253447293557" width="59.63380645161291" height="27.881636363636368" as="geometry" />
        </mxCell>
        <mxCell id="FtcTc9OO5JAJ6ZeUWabw-2" value="" style="fontColor=#0066CC;verticalAlign=top;verticalLabelPosition=bottom;labelPosition=center;align=center;html=1;outlineConnect=0;fillColor=#CCCCCC;strokeColor=#6881B3;gradientColor=none;gradientDirection=north;strokeWidth=2;shape=mxgraph.networks.desktop_pc;sketch=1;" parent="FtcTc9OO5JAJ6ZeUWabw-64" vertex="1">
          <mxGeometry x="106.6527692307692" y="118.16548421652436" width="94.80246153846153" height="224.68717948717952" as="geometry" />
        </mxCell>
        <mxCell id="FtcTc9OO5JAJ6ZeUWabw-40" value="" style="fontColor=#0066CC;verticalAlign=top;verticalLabelPosition=bottom;labelPosition=center;align=center;html=1;outlineConnect=0;fillColor=#CCCCCC;strokeColor=#6881B3;gradientColor=none;gradientDirection=north;strokeWidth=2;shape=mxgraph.networks.desktop_pc;sketch=1;" parent="FtcTc9OO5JAJ6ZeUWabw-64" vertex="1">
          <mxGeometry x="272.5570769230769" y="118.16548421652436" width="94.80246153846153" height="224.68717948717952" as="geometry" />
        </mxCell>
        <mxCell id="FtcTc9OO5JAJ6ZeUWabw-41" value="" style="fontColor=#0066CC;verticalAlign=top;verticalLabelPosition=bottom;labelPosition=center;align=center;html=1;outlineConnect=0;fillColor=#CCCCCC;strokeColor=#6881B3;gradientColor=none;gradientDirection=north;strokeWidth=2;shape=mxgraph.networks.desktop_pc;sketch=1;" parent="FtcTc9OO5JAJ6ZeUWabw-64" vertex="1">
          <mxGeometry x="438.46138461538465" y="118.16548421652436" width="94.80246153846153" height="224.68717948717952" as="geometry" />
        </mxCell>
        <mxCell id="FtcTc9OO5JAJ6ZeUWabw-46" value="Server" style="text;html=1;strokeColor=none;fillColor=none;align=center;verticalAlign=middle;whiteSpace=wrap;rounded=0;shadow=0;glass=0;dashed=1;sketch=1;fillStyle=auto;" parent="FtcTc9OO5JAJ6ZeUWabw-64" vertex="1">
          <mxGeometry x="118.50307692307695" y="73.22804831908843" width="71.10184615384615" height="33.703076923076935" as="geometry" />
        </mxCell>
        <mxCell id="FtcTc9OO5JAJ6ZeUWabw-45" value="Server" style="text;html=1;strokeColor=none;fillColor=none;align=center;verticalAlign=middle;whiteSpace=wrap;rounded=0;shadow=0;glass=0;dashed=1;sketch=1;fillStyle=auto;" parent="FtcTc9OO5JAJ6ZeUWabw-64" vertex="1">
          <mxGeometry x="284.4073846153847" y="73.22804831908843" width="71.10184615384615" height="33.703076923076935" as="geometry" />
        </mxCell>
        <mxCell id="FtcTc9OO5JAJ6ZeUWabw-44" value="Server" style="text;html=1;strokeColor=none;fillColor=none;align=center;verticalAlign=middle;whiteSpace=wrap;rounded=0;shadow=0;glass=0;dashed=1;sketch=1;fillStyle=auto;" parent="FtcTc9OO5JAJ6ZeUWabw-64" vertex="1">
          <mxGeometry x="450.3116923076923" y="73.22804831908843" width="71.10184615384615" height="33.703076923076935" as="geometry" />
        </mxCell>
        <mxCell id="FtcTc9OO5JAJ6ZeUWabw-71" value="" style="edgeStyle=orthogonalEdgeStyle;rounded=0;sketch=1;orthogonalLoop=1;jettySize=auto;html=1;" parent="FtcTc9OO5JAJ6ZeUWabw-64" source="FtcTc9OO5JAJ6ZeUWabw-56" target="FtcTc9OO5JAJ6ZeUWabw-61" edge="1">
          <mxGeometry relative="1" as="geometry" />
        </mxCell>
        <mxCell id="FtcTc9OO5JAJ6ZeUWabw-72" style="edgeStyle=orthogonalEdgeStyle;rounded=0;sketch=1;orthogonalLoop=1;jettySize=auto;html=1;entryX=0;entryY=0.5;entryDx=0;entryDy=0;" parent="FtcTc9OO5JAJ6ZeUWabw-64" source="FtcTc9OO5JAJ6ZeUWabw-56" target="FtcTc9OO5JAJ6ZeUWabw-60" edge="1">
          <mxGeometry relative="1" as="geometry" />
        </mxCell>
        <mxCell id="FtcTc9OO5JAJ6ZeUWabw-73" style="edgeStyle=orthogonalEdgeStyle;rounded=0;sketch=1;orthogonalLoop=1;jettySize=auto;html=1;exitX=1;exitY=0.5;exitDx=0;exitDy=0;entryX=0;entryY=0.5;entryDx=0;entryDy=0;" parent="FtcTc9OO5JAJ6ZeUWabw-64" source="FtcTc9OO5JAJ6ZeUWabw-56" target="FtcTc9OO5JAJ6ZeUWabw-59" edge="1">
          <mxGeometry relative="1" as="geometry" />
        </mxCell>
        <mxCell id="FtcTc9OO5JAJ6ZeUWabw-56" value="NAT网关" style="rounded=0;whiteSpace=wrap;html=1;shadow=0;glass=0;sketch=1;fillStyle=solid;fillColor=default;fontColor=#000000;strokeColor=default;" parent="FtcTc9OO5JAJ6ZeUWabw-64" vertex="1">
          <mxGeometry x="616.2159999999999" y="208.04035601139617" width="130.35338461538458" height="44.93743589743591" as="geometry" />
        </mxCell>
        <mxCell id="FtcTc9OO5JAJ6ZeUWabw-66" style="edgeStyle=orthogonalEdgeStyle;rounded=0;sketch=1;orthogonalLoop=1;jettySize=auto;html=1;exitX=0.5;exitY=1;exitDx=0;exitDy=0;" parent="FtcTc9OO5JAJ6ZeUWabw-64" source="FtcTc9OO5JAJ6ZeUWabw-51" target="FtcTc9OO5JAJ6ZeUWabw-21" edge="1">
          <mxGeometry relative="1" as="geometry" />
        </mxCell>
        <mxCell id="FtcTc9OO5JAJ6ZeUWabw-51" value="负载均衡" style="rounded=0;whiteSpace=wrap;html=1;shadow=0;glass=0;sketch=1;fillStyle=auto;fillColor=default;" parent="FtcTc9OO5JAJ6ZeUWabw-64" vertex="1">
          <mxGeometry x="134.7959513361434" width="414.7607692307693" height="44.93743589743591" as="geometry" />
        </mxCell>
        <mxCell id="FtcTc9OO5JAJ6ZeUWabw-42" value="" style="group" parent="FtcTc9OO5JAJ6ZeUWabw-64" vertex="1" connectable="0">
          <mxGeometry x="91.99431254685828" y="165.9325079865339" width="455.918949846765" height="140.38749092151923" as="geometry" />
        </mxCell>
        <mxCell id="FtcTc9OO5JAJ6ZeUWabw-6" value="" style="rounded=0;whiteSpace=wrap;html=1;fillColor=#dae8fc;strokeColor=#6c8ebf;fillStyle=solid;glass=0;sketch=1;shadow=0;dashed=1;fillOpacity=90;" parent="FtcTc9OO5JAJ6ZeUWabw-42" vertex="1">
          <mxGeometry y="9.359166061434614" width="455.918949846765" height="131.0283248600846" as="geometry" />
        </mxCell>
        <mxCell id="FtcTc9OO5JAJ6ZeUWabw-21" value="GW" style="rounded=0;whiteSpace=wrap;html=1;shadow=0;glass=0;sketch=1;fillStyle=solid;fillColor=#60a917;fontColor=#ffffff;strokeColor=#2D7600;" parent="FtcTc9OO5JAJ6ZeUWabw-42" vertex="1">
          <mxGeometry x="72.75302391171783" width="320.11330521155844" height="28.077498184303845" as="geometry" />
        </mxCell>
        <mxCell id="FtcTc9OO5JAJ6ZeUWabw-22" value="APP" style="rounded=0;whiteSpace=wrap;html=1;shadow=0;glass=0;sketch=1;fillStyle=solid;fillColor=#1ba1e2;fontColor=#ffffff;strokeColor=#006EAF;" parent="FtcTc9OO5JAJ6ZeUWabw-42" vertex="1">
          <mxGeometry x="72.75302391171783" y="37.436664245738456" width="82.45342709994686" height="37.436664245738456" as="geometry" />
        </mxCell>
        <mxCell id="FtcTc9OO5JAJ6ZeUWabw-25" value="MySQL" style="rounded=0;whiteSpace=wrap;html=1;shadow=0;glass=0;sketch=1;fillStyle=solid;fillColor=#0050ef;fontColor=#ffffff;strokeColor=#001DBC;" parent="FtcTc9OO5JAJ6ZeUWabw-42" vertex="1">
          <mxGeometry x="72.75302391171783" y="84.23249455291153" width="63.05262072348878" height="37.436664245738456" as="geometry" />
        </mxCell>
        <mxCell id="FtcTc9OO5JAJ6ZeUWabw-26" value="Redis" style="rounded=0;whiteSpace=wrap;html=1;shadow=0;glass=0;sketch=1;fillStyle=solid;fillColor=#0050ef;fontColor=#ffffff;strokeColor=#001DBC;" parent="FtcTc9OO5JAJ6ZeUWabw-42" vertex="1">
          <mxGeometry x="145.50604782343567" y="84.23249455291153" width="58.20241912937426" height="37.436664245738456" as="geometry" />
        </mxCell>
        <mxCell id="FtcTc9OO5JAJ6ZeUWabw-27" value="RabbitMQ" style="rounded=0;whiteSpace=wrap;html=1;shadow=0;glass=0;sketch=1;fillStyle=solid;fillColor=#0050ef;fontColor=#ffffff;strokeColor=#001DBC;" parent="FtcTc9OO5JAJ6ZeUWabw-42" vertex="1">
          <mxGeometry x="213.40887014103893" y="84.23249455291153" width="58.20241912937426" height="37.436664245738456" as="geometry" />
        </mxCell>
        <mxCell id="FtcTc9OO5JAJ6ZeUWabw-28" value="MinIO" style="rounded=0;whiteSpace=wrap;html=1;shadow=0;glass=0;sketch=1;fillStyle=solid;fillColor=#0050ef;fontColor=#ffffff;strokeColor=#001DBC;" parent="FtcTc9OO5JAJ6ZeUWabw-42" vertex="1">
          <mxGeometry x="281.3116924586422" y="84.23249455291153" width="58.20241912937426" height="37.436664245738456" as="geometry" />
        </mxCell>
        <mxCell id="FtcTc9OO5JAJ6ZeUWabw-29" value="APP" style="rounded=0;whiteSpace=wrap;html=1;shadow=0;glass=0;sketch=1;fillStyle=solid;fillColor=#1ba1e2;fontColor=#ffffff;strokeColor=#006EAF;" parent="FtcTc9OO5JAJ6ZeUWabw-42" vertex="1">
          <mxGeometry x="164.90685419989373" y="37.436664245738456" width="82.45342709994686" height="37.436664245738456" as="geometry" />
        </mxCell>
        <mxCell id="FtcTc9OO5JAJ6ZeUWabw-30" value="APP" style="rounded=0;whiteSpace=wrap;html=1;shadow=0;glass=0;sketch=1;fillStyle=solid;fillColor=#1ba1e2;fontColor=#ffffff;strokeColor=#006EAF;" parent="FtcTc9OO5JAJ6ZeUWabw-42" vertex="1">
          <mxGeometry x="257.0606844880696" y="37.436664245738456" width="82.45342709994686" height="37.436664245738456" as="geometry" />
        </mxCell>
        <mxCell id="FtcTc9OO5JAJ6ZeUWabw-31" value="Monitor" style="rounded=0;whiteSpace=wrap;html=1;shadow=0;glass=0;sketch=1;fillStyle=solid;fillColor=#f0a30a;fontColor=#000000;strokeColor=#BD7000;" parent="FtcTc9OO5JAJ6ZeUWabw-42" vertex="1">
          <mxGeometry x="349.2145147762455" y="37.436664245738456" width="43.65181434703069" height="84.23249455291153" as="geometry" />
        </mxCell>
        <mxCell id="FtcTc9OO5JAJ6ZeUWabw-35" value="专有网络" style="rounded=0;whiteSpace=wrap;html=1;shadow=0;glass=0;sketch=1;fillStyle=auto;fillColor=#dae8fc;strokeColor=#6c8ebf;dashed=1;" parent="FtcTc9OO5JAJ6ZeUWabw-42" vertex="1">
          <mxGeometry y="9.359166061434614" width="50.657661094085" height="18.718332122869228" as="geometry" />
        </mxCell>
        <mxCell id="FtcTc9OO5JAJ6ZeUWabw-65" style="edgeStyle=orthogonalEdgeStyle;rounded=0;sketch=1;orthogonalLoop=1;jettySize=auto;html=1;exitX=1;exitY=0.5;exitDx=0;exitDy=0;" parent="FtcTc9OO5JAJ6ZeUWabw-64" source="FtcTc9OO5JAJ6ZeUWabw-6" target="FtcTc9OO5JAJ6ZeUWabw-56" edge="1">
          <mxGeometry relative="1" as="geometry" />
        </mxCell>
      </root>
    </mxGraphModel>
  </diagram>
</mxfile>
